<svg xmlns="http://www.w3.org/2000/svg" viewBox="0 0 153.8 28.3"><style type="text/css">
	.st0{fill:#DC1C2E;}
	.st1{fill:#003DA5;}
	.st2{fill:none;}
</style><path class="st0" d="M20.8 10.3v-0.2c0-2.6-0.8-4.8-2.4-6.3 -1.8-1.7-4.5-2.6-7.7-2.6H0v27.1l6.1 0v-8.8h3.5l5.2 8.8h6.9l-6-10C18 17.2 20.8 15 20.8 10.3zM14.7 10.4L14.7 10.4c0 2.5-1.7 4-4.5 4H6.1V6.5h4.1C13.1 6.5 14.7 7.8 14.7 10.4zM106.5 1.1L96.3 28.3h6.1l2.1-5.8 9.5 0 2.1 5.8 6.3 0L112.2 1.1H106.5zM112.1 17.4h-5.8l2.9-8.3L112.1 17.4zM140.1 14.5l8.1-13.2h-6.7l-4.8 8.6 -4.7-8.6H125l8 13.3 -8.4 13.8h6.7l5.1-9.1 5.1 9.1 6.9 0L140.1 14.5zM33.3 23.1l0-5.8h10.9v-5.2H33.3V6.5l12.3 0V1.2H27.3l0 27.1 11.4 0 2.8-5.2H33.3zM85.3 1.2L79.2 10 73 1.2h-0.1L66.7 13l0 15.3h5.9l0-16.8 6.4 8.3 0 0.1h0.3l6.5-8.4v16.8l5.9 0 0-27.1H85.3z"/><polygon class="st1" points="59.2 1.2 44.9 28.3 52.3 28.3 66.6 1.2 "/></svg>